# xmcd CD database file
#
# Track frame offsets:
#	150
#	12800
#	29795
#	84700
#	95555
#	110102
#	115377
#	127537
#	132325
#	149190
#	153702
#	176870
#	190685
#	222162
#
# Disc length: 3235 seconds
#
# Revision: 1
# Processed by: cddbd v1.5PL3 Copyright (c) Steve Scherf et al.
# Submitted via: CDex 1.50Beta7
#
DISCID=d20ca10e
DTITLE=Various Artist - ETHNIC SOUND SELECTION vol.6  TRANCE 恍惚
DYEAR=1900
DGENRE=Ethnic
TTITLE0=ラーガ：キラナーヴァリ(インド)
TTITLE1=サウン・ガウの独奏(ビルマ)
TTITLE2=ガンバン・スリン(バリ島)
TTITLE3=クイクロ族のパンパイプの演奏(ブラジル)
TTITLE4=ウォロフ族の合奏(セネガル)
TTITLE5=黒海の踊り(トルコ)
TTITLE6=ジャクタ・カル・ピ〜林から遠く(ボリビア)
TTITLE7=リス族の笙と踊り(タイ)
TTITLE8=羊飼いの祭り(ペルー)
TTITLE9=ジムナスカ(フランス)
TTITLE10=黒い瞳〜ポールシュカ・ポーレ
TTITLE11=カリンカ(ロシア)
TTITLE12=エスコーラ・ジ・サンバの演奏(ブラジル)
TTITLE13=アラビアの踊り(トルコ)
EXTD=
EXTT0=
EXTT1=
EXTT2=
EXTT3=
EXTT4=
EXTT5=
EXTT6=
EXTT7=
EXTT8=
EXTT9=
EXTT10=
EXTT11=
EXTT12=
EXTT13=
PLAYORDER=
